<svg width="92" height="92" viewBox="0 0 92 92" xmlns="http://www.w3.org/2000/svg" xmlns:xlink="http://www.w3.org/1999/xlink"><title>toastmasters-online-meeting-icon</title><defs><path id="path-1" d="M0 60.37h65.425V.116H0z"/></defs><g id="Symbols" fill="none" fill-rule="evenodd"><g id="Online-Meeting-Management"><g id="toastmasters-online-meeting-icon"><g id="Iceberg" fill="#FFF" stroke="#4A4A4A" transform="translate(1 1)"><circle id="Oval-Copy" cx="45" cy="45" r="45"/></g><path d="M27.626 68.376h33.748V44.624H27.626v23.752zM27 69h35V44H27v25z" id="Fill-1" fill="#53595A" transform="translate(1 1)"/><path d="M29.632 66.367h29.736V46.633H29.632v19.734zM29 67h31V46H29v21z" id="Fill-2" fill="#53595A" transform="translate(1 1)"/><g id="Group-24" transform="translate(13 16)"><path d="M11.77 54.128v1.195c0 .53.435.96.97.96H52.36c.535 0 .97-.43.97-.96v-1.195H11.77zm40.592 2.785H12.74a1.6 1.6 0 0 1-1.605-1.59V53.5h42.83v1.823a1.6 1.6 0 0 1-1.603 1.59z" id="Fill-3" fill="#53595A"/><mask id="mask-2" fill="#fff"><use xlink:href="#path-1"/></mask><path d="M28.427 54.523h8.247v-.395h-8.247v.395zm-.635.63h9.516v-1.654h-9.516v1.652z" id="Fill-5" fill="#53595A" mask="url(#mask-2)"/><path d="M32.543 33.93c-1.562 0-2.832 1.26-2.832 2.806v.663c0 1.29.832 2.415 2.022 2.737.243.066.493.1.745.1h.132c.332 0 .66-.06.975-.174 1.07-.392 1.79-1.46 1.79-2.662v-.664c0-1.547-1.27-2.806-2.832-2.806m.066 6.934h-.133c-.308 0-.615-.04-.912-.12-1.466-.396-2.49-1.77-2.49-3.345v-.664c0-1.894 1.556-3.435 3.468-3.435s3.466 1.542 3.466 3.436v.665c0 1.464-.887 2.77-2.206 3.252-.384.14-.786.212-1.195.212" id="Fill-7" fill="#53595A" mask="url(#mask-2)"/><path id="Fill-8" fill="#53595A" mask="url(#mask-2)" d="M28.125 49.77h.634v-3.765h-.635z"/><path d="M39.36 49.77h-.634v-3.962c0-2.014-1.653-3.652-3.687-3.652h-.185L32.55 45.36l-2.303-3.204h-.186c-2.03 0-3.684 1.638-3.684 3.652v3.96h-.635v-3.96c0-2.36 1.94-4.28 4.32-4.28h.513l1.978 2.748 1.978-2.75h.51c2.384 0 4.322 1.92 4.322 4.282v3.96z" id="Fill-9" fill="#53595A" mask="url(#mask-2)"/><path id="Fill-10" fill="#53595A" mask="url(#mask-2)" d="M36.34 49.77h.636v-3.765h-.635z"/><path d="M32.483 3.94a2.735 2.735 0 0 0-1.94.8 2.682 2.682 0 0 0-.794 1.917V7.3c.004 1.247.81 2.332 1.96 2.638.232.063.473.094.714.094h.133c.32-.002.638-.06.943-.17 1.032-.38 1.723-1.417 1.72-2.577l-.002-.644c-.005-1.49-1.23-2.7-2.735-2.7m-.058 6.72a3.41 3.41 0 0 1-.88-.115c-1.426-.38-2.424-1.713-2.43-3.243V6.66a3.3 3.3 0 0 1 .978-2.364 3.364 3.364 0 0 1 2.38-.985c1.863 0 3.374 1.492 3.38 3.33v.643c.006 1.422-.85 2.696-2.132 3.168a3.403 3.403 0 0 1-1.16.21h-.135" id="Fill-11" fill="#53595A" mask="url(#mask-2)"/><path d="M39.798 16.24h-.635v-1.18c0-1.3-1.07-2.36-2.383-2.36h-8.46c-1.313 0-2.382 1.06-2.382 2.36v1.18h-.635v-1.18c0-1.647 1.354-2.99 3.017-2.99h8.46c1.664 0 3.018 1.343 3.018 2.99v1.18z" id="Fill-12" fill="#53595A" mask="url(#mask-2)"/><path d="M32.55.744c-5.072 0-9.2 4.09-9.2 9.117 0 5.028 4.128 9.118 9.2 9.118 5.074 0 9.2-4.09 9.2-9.117 0-5.026-4.126-9.116-9.2-9.116m0 18.863c-5.423 0-9.835-4.372-9.835-9.746 0-5.373 4.412-9.745 9.836-9.745 5.423 0 9.835 4.372 9.835 9.746 0 5.375-4.412 9.747-9.834 9.747" id="Fill-13" fill="#770D29" mask="url(#mask-2)"/><path d="M55.523 11.607a2.735 2.735 0 0 0-1.94.8 2.682 2.682 0 0 0-.795 1.917l.002.644c.004 1.246.81 2.33 1.958 2.638.236.063.454.1.722.093h.127c.32-.002.638-.06.942-.172 1.032-.38 1.722-1.416 1.72-2.575l-.003-.644c-.004-1.493-1.23-2.703-2.734-2.703m-.06 6.72a3.41 3.41 0 0 1-.88-.114c-1.425-.38-2.423-1.714-2.428-3.244l-.002-.644a3.3 3.3 0 0 1 .98-2.363 3.364 3.364 0 0 1 2.38-.985c1.863 0 3.373 1.49 3.38 3.328v.645c.005 1.423-.852 2.696-2.133 3.168a3.403 3.403 0 0 1-1.16.21h-.136" id="Fill-14" fill="#53595A" mask="url(#mask-2)"/><path d="M62.837 23.91h-.634v-1.182c0-1.302-1.07-2.36-2.383-2.36h-8.46c-1.314 0-2.383 1.058-2.383 2.36v1.18h-.634v-1.18c0-1.648 1.353-2.99 3.017-2.99h8.46c1.664 0 3.017 1.342 3.017 2.99v1.18z" id="Fill-15" fill="#53595A" mask="url(#mask-2)"/><path d="M55.59 8.41c-5.073 0-9.2 4.09-9.2 9.118 0 5.028 4.127 9.117 9.2 9.117 5.073 0 9.2-4.09 9.2-9.117 0-5.027-4.127-9.117-9.2-9.117m0 18.864c-5.423 0-9.835-4.372-9.835-9.746 0-5.374 4.412-9.746 9.835-9.746 5.423 0 9.835 4.372 9.835 9.746 0 5.374-4.412 9.746-9.835 9.746" id="Fill-16" fill="#770D29" mask="url(#mask-2)"/><path id="Fill-17" fill="#770D29" mask="url(#mask-2)" d="M32.233 29.243h.635v-9.95h-.635z"/><path id="Fill-18" fill="#770D29" mask="url(#mask-2)" d="M44.72 29.458l-.463-.43 4.587-4.84.462.43z"/><path d="M9.902 11.607c-1.504 0-2.73 1.21-2.734 2.702l-.002.643c-.004 1.16.687 2.195 1.72 2.575.304.112.62.17.942.17h.128c.246 0 .487-.03.72-.092 1.15-.307 1.955-1.392 1.96-2.64v-.64a2.683 2.683 0 0 0-.794-1.92 2.734 2.734 0 0 0-1.94-.8m.06 6.722h-.137c-.395-.002-.785-.073-1.16-.21-1.28-.472-2.138-1.745-2.134-3.168l.003-.644c.006-1.837 1.516-3.328 3.37-3.328.91.003 1.755.353 2.39.985.633.633.98 1.472.978 2.364v.642c-.006 1.53-1.004 2.863-2.43 3.243a3.408 3.408 0 0 1-.88.115" id="Fill-19" fill="#53595A" mask="url(#mask-2)"/><path d="M17.082 23.91h-.635v-1.182c0-1.302-1.07-2.36-2.383-2.36h-8.46c-1.313 0-2.382 1.058-2.382 2.36v1.18h-.635v-1.18c0-1.648 1.354-2.99 3.018-2.99h8.46c1.663 0 3.017 1.342 3.017 2.99v1.18z" id="Fill-20" fill="#53595A" mask="url(#mask-2)"/><path d="M9.835 8.41c-5.073 0-9.2 4.09-9.2 9.118 0 5.028 4.127 9.117 9.2 9.117 5.073 0 9.2-4.09 9.2-9.117 0-5.027-4.127-9.117-9.2-9.117m0 18.864C4.412 27.274 0 22.902 0 17.528c0-5.374 4.412-9.746 9.835-9.746 5.423 0 9.835 4.372 9.835 9.746 0 5.374-4.412 9.746-9.835 9.746" id="Fill-21" fill="#770D29" mask="url(#mask-2)"/><path id="Fill-22" fill="#770D29" mask="url(#mask-2)" d="M20.706 29.458l-4.587-4.84.46-.43 4.588 4.84z"/><path d="M55.318 60.37H9.76a1.895 1.895 0 0 1-1.903-1.885c0-1.042.852-1.887 1.904-1.887H55.32c1.052 0 1.904.845 1.904 1.887a1.895 1.895 0 0 1-1.904 1.886" id="Fill-23" fill="#D5D6D6" mask="url(#mask-2)"/></g></g></g></g></svg>