<svg width="92" height="92" viewBox="0 0 92 92" xmlns="http://www.w3.org/2000/svg"><title>toastmasters-leadership-icon</title><g id="Symbols" fill="none" fill-rule="evenodd"><g id="Leadership-Development"><g id="toastmasters-leadership-icon"><g id="Iceberg" fill="#FFF" stroke="#4A4A4A" transform="translate(1 1)"><circle id="Oval-Copy" cx="45" cy="45" r="45"/></g><path id="Fill-1" fill="#770D29" d="M74.477 77l-24.7-24.732-11.58 10.485L13 37.523l.523-.523 24.7 24.732 11.58-10.485L75 76.477z" transform="translate(1 1)"/><path id="Fill-2" fill="#770D29" d="M12.743 52H12V37h15v.743H12.743z" transform="translate(1 1)"/><g id="Group-18"><path d="M7.567 17.807a3.023 3.023 0 0 1-2.322-1.088L.583 11.132 1.8 10.108a2.916 2.916 0 0 1 2.148-.68c.78.07 1.49.443 1.995 1.047L8.09 13.05l10.078-2.893.204.712-10.54 3.025-2.455-2.944c-.378-.452-.908-.73-1.494-.78a2.167 2.167 0 0 0-1.61.506l-.65.548 4.186 5.02c.58.694 1.513.982 2.385.733l11.01-3.16.204.713-11.012 3.16a3.02 3.02 0 0 1-.83.117" id="Fill-3" fill="#53595A" transform="translate(37 14)"/><path d="M23.087 12.685l2.455 2.944c.38.452.91.73 1.496.782a2.174 2.174 0 0 0 1.608-.508l.65-.547-4.183-5.017a2.287 2.287 0 0 0-2.39-.733l-8.597 2.482a2.395 2.395 0 0 0-1.64 2.953l.185.648 10.417-3.005zm4.15 4.478a2.913 2.913 0 0 1-2.26-1.057l-2.15-2.574-10.663 3.08-.386-1.365a3.137 3.137 0 0 1 2.145-3.87l8.597-2.48a3.023 3.023 0 0 1 3.158.97l4.658 5.584-1.215 1.022a2.91 2.91 0 0 1-1.884.69z" id="Fill-5" fill="#53595A" transform="translate(37 14)"/><path d="M13.66 1.266c-1.915 0-3.473 1.564-3.473 3.488v.82c0 1.605 1.02 3.004 2.477 3.402.3.082.61.124.917.124h.16a3.4 3.4 0 0 0 1.196-.216c1.314-.486 2.196-1.816 2.196-3.31v-.82a3.484 3.484 0 0 0-3.473-3.488m.08 8.575h-.16c-.373 0-.746-.05-1.11-.15-1.778-.484-3.02-2.178-3.02-4.116v-.82c0-2.332 1.887-4.23 4.21-4.23 2.322 0 4.21 1.898 4.21 4.23v.82c0 1.804-1.076 3.413-2.678 4.005a4.155 4.155 0 0 1-1.45.26" id="Fill-7" fill="#53595A" transform="translate(37 14)"/><path d="M24.112 42.91L16.5 35.33a3.105 3.105 0 0 1-.907-2.186v-5.19h.738v5.19c0 .618.252 1.223.69 1.66l7.09 7.06 2.437-2.447-6.77-6.8v-4.73h.738v4.422l7.075 7.107-3.478 3.494z" id="Fill-9" fill="#53595A" transform="translate(37 14)"/><path d="M18.27 10.513L13.9 11.77a2.564 2.564 0 0 0-1.75 3.164l2.5 8.87H9.973a2.7 2.7 0 0 0-2.696 2.705v9.376h4.184v-7.882h7.106c2.57 0 4.092-2.03 3.385-4.51l-2.64-9.318-1.04-3.663z" id="Fill-11" fill="#FFF" transform="translate(37 14)"/><path d="M11.83 36.257H6.907V26.51A3.074 3.074 0 0 1 9.97 23.43h4.19l-2.367-8.397a2.937 2.937 0 0 1 2.003-3.622l4.37-1.257.203.713L14 12.125a2.195 2.195 0 0 0-1.495 2.706l2.634 9.34H9.97a2.334 2.334 0 0 0-2.327 2.337v9.005h3.446v-7.882h7.476c1.123 0 2.056-.417 2.627-1.177.57-.76.712-1.774.403-2.86l-2.642-9.318.71-.203 2.64 9.317c.376 1.314.19 2.56-.523 3.51-.71.95-1.853 1.472-3.214 1.472H11.83v7.883z" id="Fill-13" fill="#53595A" transform="translate(37 14)"/></g></g></g></g></svg>