<svg width="92" height="92" viewBox="0 0 92 92" xmlns="http://www.w3.org/2000/svg" xmlns:xlink="http://www.w3.org/1999/xlink"><title>toastmasters-project-management-icon</title><defs><path id="path-1" d="M.345.396h15.19v14.296H.345z"/></defs><g id="Symbols" fill="none" fill-rule="evenodd"><g id="Project-Management"><g id="toastmasters-project-management-icon"><g id="Iceberg" fill="#FFF" stroke="#4A4A4A" transform="translate(1 1)"><circle id="Oval-Copy" cx="45" cy="45" r="45"/></g><path d="M35.5 24.646c-12.05 0-21.854 9.804-21.854 21.853 0 12.05 9.803 21.854 21.854 21.854 12.05 0 21.854-9.804 21.854-21.855 0-12.05-9.804-21.854-21.854-21.854M35.5 69C23.093 69 13 58.907 13 46.5S23.093 24 35.5 24C47.906 24 58 34.093 58 46.5S47.906 69 35.5 69" id="Fill-1" fill="#53595A" transform="translate(1 1)"/><path id="Fill-3" fill="#770D29" d="M36 47H20v-.65h15.343V28H36z" transform="translate(1 1)"/><path id="Fill-5" fill="#FFF" d="M44.4 29.157L39 45.603l1.28 21.066L49.707 76l24.606-11.523L75 25z" transform="translate(1 1)"/><path d="M71.343 45l-6.16-.025c-1.42-.006-2.708-.904-3.28-2.288L59 35.673l.592-.28 2.903 7.015c.47 1.136 1.525 1.873 2.69 1.878l6.15.025a1.977 1.977 0 0 0 1.424-.62c.38-.404.59-.942.593-1.514a2.2 2.2 0 0 0-.583-1.518 1.94 1.94 0 0 0-1.42-.634l-5.46-.022-3.607-8.723.592-.28 3.44 8.314 5.037.02c.71.004 1.377.3 1.878.838.5.537.773 1.25.77 2.006a2.908 2.908 0 0 1-.785 2 2.56 2.56 0 0 1-1.872.822" id="Fill-7" fill="#53595A" transform="translate(1 1)"/><path d="M61.5 17.667c-2.66 0-4.825 2.138-4.825 4.766v1.086c0 2.037 1.227 3.854 3.053 4.518a4.85 4.85 0 0 0 1.663.295h.217c.43 0 .857-.057 1.272-.17 2.028-.544 3.445-2.455 3.445-4.647v-1.083c0-2.628-2.165-4.766-4.825-4.766M61.607 29h-.216a5.513 5.513 0 0 1-1.895-.336C57.405 27.904 56 25.836 56 23.52v-1.087C56 19.437 58.467 17 61.5 17s5.5 2.437 5.5 5.433v1.083c0 2.492-1.622 4.668-3.944 5.292-.473.128-.96.192-1.45.192" id="Fill-9" fill="#53595A" transform="translate(1 1)"/><path d="M47.776 72L43 67.765l7.627-9.194L52.58 51l.633.158-2.034 7.762-7.28 8.778 3.8 3.37 7.866-9.595c.305-.372.523-.815.628-1.28l1.17-5.127.636.14-1.168 5.127a3.753 3.753 0 0 1-.757 1.543L47.775 72z" id="Fill-11" fill="#53595A" transform="translate(1 1)"/><g id="Group-15" transform="translate(68 41)"><mask id="mask-2" fill="#fff"><use xlink:href="#path-1"/></mask><path d="M1.232 7.698l3.973 6.09 9.442-6.4L10.673 1.3l-9.44 6.398zm3.795 6.994L.345 7.516 10.853.396l4.682 7.176-10.508 7.12z" id="Fill-13" fill="#770D29" mask="url(#mask-2)"/></g><path d="M59.406 48.21l.433-1.716L63.3 34.45c.493-1.78-.442-4.45-3.505-4.45l-12.42 1.133c-.973.103-1.795.788-2.1 1.748l-2.155 6.83c-.414 1.31.28 2.717 1.547 3.145 1.268.427 2.632-.29 3.046-1.6l1.684-5.33 4.123-.438-2.65 9.14c-.635 2.342.255 4.843 2.21 6.2 1.304.904 4.085 3.33 8.343 7.278V72H67V56.817a3.668 3.668 0 0 0-1.172-2.7l-6.422-5.907z" id="Fill-16" fill="#FFF" transform="translate(1 1)"/><path d="M61.34 71.35h5.01V56.725a3.24 3.24 0 0 0-1.08-2.415l-6.665-5.947.49-1.883 3.515-11.868c.26-.914.06-1.997-.51-2.755-.595-.79-1.54-1.207-2.736-1.207l-12.572 1.114a2.185 2.185 0 0 0-1.85 1.498l-2.187 6.723a2.133 2.133 0 0 0 1.36 2.685 2.127 2.127 0 0 0 2.682-1.365l1.774-5.45 4.88-.503-2.828 9.466a5.215 5.215 0 0 0 2.11 5.74l8.61 7.285V71.35zM67 72h-6.31V58.146l-8.348-7.068c-2.076-1.397-3.03-3.994-2.344-6.44l2.55-8.538-3.49.36-1.643 5.048a2.78 2.78 0 0 1-3.5 1.782 2.787 2.787 0 0 1-1.778-3.508l2.188-6.722a2.836 2.836 0 0 1 2.405-1.944L59.336 30c1.808 0 2.78.796 3.282 1.465.7.93.936 2.205.616 3.33l-3.513 11.86-.386 1.487 6.367 5.683a3.89 3.89 0 0 1 1.3 2.9V72z" id="Fill-18" fill="#53595A" transform="translate(1 1)"/></g></g></g></svg>