<svg width="92" height="92" viewBox="0 0 92 92" xmlns="http://www.w3.org/2000/svg" xmlns:xlink="http://www.w3.org/1999/xlink"><title>toastmasters-conflict-icon</title><defs><path id="path-1" d="M0 .376h52.94V37H0z"/></defs><g id="Symbols" fill="none" fill-rule="evenodd"><g id="Conflict-Resolution"><g id="toastmasters-conflict-icon"><g id="Iceberg" fill="#FFF" stroke="#4A4A4A" transform="translate(1 1)"><circle id="Oval-Copy" cx="45" cy="45" r="45"/></g><path d="M21 52.844c-.718 0-1.282.715-1.282 1.624 0 .91.564 1.623 1.282 1.623.718 0 1.282-.713 1.282-1.622 0-.91-.564-1.624-1.282-1.624M21 57c-1.128 0-2-1.104-2-2.467C19 53.17 19.872 52 21 52c1.128 0 2 1.104 2 2.533-.05 1.363-.923 2.467-2 2.467" id="Fill-1" fill="#772432" transform="translate(1 1)"/><path d="M70 52.897c-.718 0-1.282.706-1.282 1.603s.564 1.602 1.282 1.602c.718 0 1.282-.705 1.282-1.602 0-.897-.564-1.603-1.282-1.603M70 57c-1.077 0-2-1.09-2-2.5 0-1.347.872-2.5 2-2.5 1.077 0 2 1.09 2 2.5s-.923 2.5-2 2.5" id="Fill-3" fill="#772432" transform="translate(1 1)"/><g id="Group-7" transform="translate(20 32)"><mask id="mask-2" fill="#fff"><use xlink:href="#path-1"/></mask><path d="M41.425 27.405l-7.858-11.978c-.853-1.38-1.584-2.822-2.68-4.013-.793-.878-1.95-1.255-3.17-1.13-1.034.126-1.826.753-2.557 1.443-.853.815-1.645 1.63-2.437 2.383-1.22 1.192-2.437 2.697-4.265 2.697-1.157 0-2.924-.565-2.985-2.07 0-1.003.914-1.693 1.523-2.383 2.985-3.323 5.97-6.648 8.956-10.034h11.574l7.19 4.265v20.82h-3.29zM40.268 29.6c-.427.502-1.097.753-1.95.753h-.06c-.975 0-2.01-.753-3.168-2.258-.975-1.254-1.95-2.508-2.925-3.825l-6.03-7.65H23.94v.94h1.83l5.786 7.337 2.924 3.762c.488.627 1.158 1.38 1.89 1.88a2.8 2.8 0 0 1-.49 1.57c-.425.5-1.095.75-1.948.75-1.28 0-2.437-1.316-3.168-2.257L27.84 26.84l-6.03-7.65h-2.194v.815h1.828l5.787 7.337a200.97 200.97 0 0 1 2.925 3.826c.305.376.61.752.975 1.066.06.627-.122 1.19-.488 1.568-.426.5-1.096.752-1.95.752-.974 0-2.07-.752-3.167-2.257-1.096-1.38-2.01-2.634-2.924-3.826l-6.152-7.524h-2.193v.815h1.828L21.87 29.1c.914 1.13 1.888 2.383 2.924 3.763.244.315.487.628.73.88.062.626-.12 1.19-.486 1.567-.427.5-1.097.752-1.95.752-1.34 0-2.315-1.13-3.107-2.133-1.034-1.317-2.01-2.634-3.044-3.95l-6.032-7.652h-2.68V4.39h14.743c-1.463 1.63-2.986 3.324-4.448 4.954-.853.94-1.645 1.88-2.498 2.76-.67.752-1.4 1.567-1.4 2.633 0 1.944 1.948 2.884 3.776 2.884 1.34.065 2.497-.688 3.472-1.566 1.157-1.066 2.254-2.195 3.35-3.323.67-.69 1.402-1.442 2.376-1.63 2.68-.564 4.02 2.948 5.24 4.766l7.98 12.103c0 .626-.183 1.19-.548 1.63zm12.67-28.408V.376h-8.223v5.268l-7.006-4.14H25.585l-1.828 2.07H8.224V.377H0v.816h7.432v28.03H0v.88h8.224V23.33h2.254l5.787 7.336 2.925 3.763c.487.626 1.95 2.57 3.837 2.57 1.34 0 2.133-.565 2.56-1.066.365-.376.547-.878.67-1.442.79.627 1.522.94 2.314.94 1.34 0 2.133-.565 2.56-1.066.365-.44.61-.94.67-1.505.61.44 1.34.753 2.07.816h.062c1.34 0 2.132-.564 2.498-1.066.426-.44.67-1.066.73-1.693.366.125.732.25 1.097.25h.06c1.34 0 2.133-.564 2.56-1.065.426-.502.67-1.192.73-1.944h3.108v1.944h8.224v-.815h-7.433V1.192h7.432z" id="Fill-5" fill="#53595A" mask="url(#mask-2)"/></g></g></g></g></svg>