<svg width="92" height="92" viewBox="0 0 92 92" xmlns="http://www.w3.org/2000/svg"><title>toastmasters-interview-icon</title><g id="Symbols" fill="none" fill-rule="evenodd"><g id="Interview-Preparation"><g id="toastmasters-interview-icon"><g id="Iceberg" fill="#FFF" stroke="#4A4A4A" transform="translate(1 1)"><circle id="Oval-Copy" cx="45" cy="45" r="45"/></g><path d="M32.67 70.342h34.66V26.658H32.67v43.684zM32 71h36V26H32v45z" id="Fill-1" fill="#53595A" transform="translate(1 1)"/><path id="Fill-2" fill="#53595A" d="M49 40h13v-1H49z" transform="translate(1 1)"/><path id="Fill-3" fill="#53595A" d="M49 35h13v-1H49z" transform="translate(1 1)"/><g id="Group-25"><path d="M19.23 24.826h6.942V18.05h-6.94v6.776zm7.28.66h-7.617a.334.334 0 0 1-.337-.33V17.72c0-.184.15-.33.337-.33h7.616c.186 0 .337.146.337.33v7.436c0 .18-.15.33-.338.33z" id="Fill-4" fill="#53595A" transform="translate(19 17)"/><path id="Fill-6" fill="#FFF" d="M23.69 24.41l5.99-6.285-1.16-1.057-5.88 6.166-2.063-2.162-1.163 1.056 2.177 2.282z" transform="translate(19 17)"/><path d="M22.64 23.954a.343.343 0 0 1-.247-.104l-2.644-2.772.493-.45 2.397 2.514 6.213-6.517.495.45-6.46 6.775a.343.343 0 0 1-.248.104" id="Fill-7" fill="#772432" transform="translate(19 17)"/><path id="Fill-8" fill="#53595A" d="M30.743 35.624H44.24v-.66H30.743z" transform="translate(19 17)"/><path id="Fill-9" fill="#53595A" d="M30.743 30.706H44.24v-.66H30.743z" transform="translate(19 17)"/><path d="M19.23 36.224h6.942v-6.778h-6.94v6.778zm7.28.66h-7.617a.334.334 0 0 1-.337-.33v-7.437c0-.183.15-.33.337-.33h7.616c.186 0 .337.147.337.33v7.436c0 .182-.15.33-.338.33z" id="Fill-10" fill="#53595A" transform="translate(19 17)"/><path id="Fill-11" fill="#FFF" d="M23.69 35.808l5.99-6.285-1.16-1.057-5.88 6.166-2.063-2.162-1.163 1.056 2.177 2.282z" transform="translate(19 17)"/><path d="M22.64 35.353a.343.343 0 0 1-.247-.105l-2.644-2.772.493-.45 2.397 2.514 6.213-6.517.495.45-6.46 6.775a.343.343 0 0 1-.248.105" id="Fill-12" fill="#772432" transform="translate(19 17)"/><path id="Fill-13" fill="#53595A" d="M30.743 47.022H44.24v-.66H30.743z" transform="translate(19 17)"/><path id="Fill-14" fill="#53595A" d="M30.743 42.104H44.24v-.66H30.743z" transform="translate(19 17)"/><path d="M19.23 47.622h6.942v-6.777h-6.94v6.777zm7.28.66h-7.617a.334.334 0 0 1-.337-.33v-7.437c0-.183.15-.33.337-.33h7.616c.186 0 .337.147.337.33v7.437c0 .18-.15.33-.338.33z" id="Fill-15" fill="#53595A" transform="translate(19 17)"/><path id="Fill-16" fill="#FFF" d="M23.69 47.206l5.99-6.285-1.16-1.056-5.88 6.166-2.063-2.162-1.163 1.056 2.177 2.282z" transform="translate(19 17)"/><path d="M22.64 46.75a.343.343 0 0 1-.247-.104l-2.644-2.772.493-.45 2.397 2.514 6.213-6.517.495.45-6.46 6.776a.343.343 0 0 1-.248.104" id="Fill-17" fill="#772432" transform="translate(19 17)"/><path d="M31.567 6.216c-.943 0-1.707-.745-1.707-1.667 0-.92.764-1.667 1.707-1.667.942 0 1.706.746 1.706 1.666 0 .92-.764 1.666-1.706 1.666m8.95-1.526h-4.694c0-.048.006-.094.006-.14 0-2.3-1.91-4.163-4.263-4.163-2.355 0-4.264 1.863-4.264 4.163 0 .046.007.092.008.14h-4.695c-.722 0-1.307.57-1.307 1.276v5.298h20.517V5.966c0-.705-.585-1.276-1.308-1.276" id="Fill-18" fill="#FFF" transform="translate(19 17)"/><path d="M31.567 3.212c-.755 0-1.37.6-1.37 1.338 0 .737.615 1.336 1.37 1.336.754 0 1.368-.6 1.368-1.336 0-.738-.614-1.338-1.368-1.338zm0 3.333c-1.127 0-2.044-.895-2.044-1.995s.917-1.997 2.044-1.997c1.126 0 2.043.896 2.043 1.997 0 1.1-.917 1.995-2.043 1.995zm-9.92 4.39h19.84V5.967a.96.96 0 0 0-.97-.948H35.48l.01-.42c.002-2.164-1.758-3.883-3.923-3.883s-3.925 1.72-3.925 3.833l.02.47h-5.047a.958.958 0 0 0-.97.945v4.97zm20.515.66h-21.19v-5.63c0-.885.737-1.605 1.643-1.605h4.355c.103-2.39 2.126-4.302 4.597-4.302 2.47 0 4.494 1.913 4.597 4.302h4.353c.907 0 1.645.72 1.645 1.607v5.627z" id="Fill-19" fill="#53595A" transform="translate(19 17)"/><path d="M.884 52.592h2.76v-16.33H.883v16.33zm-.676.66h4.11V35.6H.207v17.65z" id="Fill-20" fill="#53595A" transform="translate(19 17)"/><path d="M.675 35.603h3.177V21.05H.675v14.553zm-.675.66h4.527V20.39H0v15.872z" id="Fill-21" fill="#53595A" transform="translate(19 17)"/><path d="M5.75 35.602h.624v-13.39H4.526v1.926H5.75v11.464zm1.3.66H5.073V24.797H3.85v-3.245h3.2v14.71z" id="Fill-22" fill="#53595A" transform="translate(19 17)"/><path d="M1.023 53.25l1.24 3.43 1.24-3.43h-2.48zM2.263 58a.338.338 0 0 1-.32-.22L.228 53.03a.325.325 0 0 1 .043-.3.34.34 0 0 1 .276-.138H3.98a.34.34 0 0 1 .276.14c.063.087.08.2.043.3L2.58 57.78a.338.338 0 0 1-.32.22z" id="Fill-23" fill="#53595A" transform="translate(19 17)"/><path id="Fill-24" fill="#53595A" d="M53.39 57.924H9.743V6.79H21.31v.658H10.417v49.817h42.297V7.448h-10.89v-.66H53.39z" transform="translate(19 17)"/></g></g></g></g></svg>